# xmcd
#
# Track frame offsets:
#	150
#	15603
#	31589
#	44840
#	62201
#	79468
#	92472
#	113046
#	124010
#	136173
#	149459
#	163213
#	182919
#	204549
#	219845
#	236117
#	250175
#	267914
#	287575
#	304624
#	316822
#
# Disc length: 4494 seconds
#
# Revision: 1
# Processed by: cddbd v1.5.2PL0 Copyright (c) Steve Scherf et al.
# Submitted via: audiograbber 1.83.01
#
DISCID=2d118c15
DTITLE=Various Artist - 100 Greatest Country Duets #2
DYEAR=2008
DGENRE=Country
TTITLE0=Keith, Toby and Nelson, Willie - #31 Beer For My Horses
TTITLE1=Parsons, Gram and Harris, Emmylou - #30 Hickory Wind
TTITLE2=Cash, Johnny and Cash, June Carter - #29 If I Were A Carpenter
TTITLE3=Lynn, Loretta and White, Jack - #28 Portland Oregon
TTITLE4=Orbison, Roy and Lang, R.D. - #27 Crying
TTITLE5=Yokam, Dwight and Owens, Buck - #26 Streets Of Bakersfield
TTITLE6=Nelson, Willie and Womack, Lee Ann - #25 Mendocino County Line
TTITLE7=Parton, Dolly and Wagoner, Porter - #24 Just Someone I Used To Know
TTITLE8=Jopnes, George and Wynette, Tammy - #23 Two Story House
TTITLE9=Rogers, Roy and Evans, Dale - #22 Happy Trails
TTITLE10=Jennings, Waylon and Nelson, Willie - #21 Good Hearted Woman
TTITLE11=Yearwood, Trisha and Henley, Don - #20 Walkaway Joe
TTITLE12=Nelson, Willie and Haggard, Merle - #19 Pancho and Lefty
TTITLE13=McEntire, Reba and Gill, Vince - #18 Heart Won't Lie, The
TTITLE14=Brooks, Garth and Yearwood, Trisha - #17 In Another's Eyes
TTITLE15=Jones, George and Wynette, Tammy - #16 Golden Ring
TTITLE16=Charles, Ray and Nelson, Willie - #15 Seven Spanish Angels
TTITLE17=Paisley, Brad and Krauss, Allison - #14 Whiskey Lullaby
TTITLE18=Mcgraw, Tim and Hill, Faith - #13 It's Your Love
TTITLE19=Tritt, Travis and Stuart, Marty - #12 Whiskey Ain't Working Anymore, The
TTITLE20=Black, Clint and Black, Lisa Hartman - #11 When I Said I Do
EXTD=
EXTT0=
EXTT1=
EXTT2=
EXTT3=
EXTT4=
EXTT5=
EXTT6=
EXTT7=
EXTT8=
EXTT9=
EXTT10=
EXTT11=
EXTT12=
EXTT13=
EXTT14=
EXTT15=
EXTT16=
EXTT17=
EXTT18=
EXTT19=
EXTT20=
PLAYORDER=
